<svg width="1200" height="720" viewBox="0 0 1200 720" fill="none" xmlns="http://www.w3.org/2000/svg" role="img" aria-labelledby="title desc">
<title id="title">Cara kerja SkripsiFlow</title><desc id="desc">Tiga langkah: masukkan bahan, review struktur, dan unduh dokumen Word.</desc>
<rect width="1200" height="720" rx="28" fill="#F6F8FB"/>
<rect x="56" y="48" width="1088" height="92" rx="18" fill="#183B56"/>
<path d="M88 77h28a16 16 0 0 1 0 32H101v19H88V77Zm13 12v8h15a4 4 0 0 0 0-8h-15Z" fill="#9DE4C2"/><path d="M101 110h25v12h-25z" fill="#183B56"/>
<text x="144" y="99" fill="white" font-family="Arial, sans-serif" font-size="25" font-weight="700">Skripsi<tspan fill="#9DE4C2">Flow</tspan></text><text x="144" y="121" fill="#DDEAF0" font-family="Arial, sans-serif" font-size="12">Dari bahan mentah menjadi skripsi siap format</text>
<text x="72" y="198" fill="#4FB98B" font-family="Arial, sans-serif" font-size="12" font-weight="700" letter-spacing="2">CARA KERJA</text><text x="72" y="238" fill="#132238" font-family="Georgia, serif" font-size="35">Tiga langkah sederhana.</text>
<g><rect x="72" y="280" width="320" height="330" rx="18" fill="white" stroke="#D7E1E8"/><circle cx="112" cy="324" r="22" fill="#DFF6EB"/><text x="105" y="331" fill="#183B56" font-family="Arial" font-size="16" font-weight="700">01</text><text x="104" y="392" fill="#183B56" font-family="Arial" font-size="34">↑</text><text x="104" y="458" fill="#132238" font-family="Arial" font-size="19" font-weight="700">Masukkan bahan</text><text x="104" y="488" fill="#5F7184" font-family="Arial" font-size="14">Upload .md / .txt atau</text><text x="104" y="510" fill="#5F7184" font-family="Arial" font-size="14">paste hasil AI.</text><rect x="104" y="548" width="86" height="28" rx="5" fill="#EDF3F6"/><text x="118" y="566" fill="#183B56" font-family="Arial" font-size="11" font-weight="700">UPLOAD</text></g>
<path d="M415 445h48" stroke="#4FB98B" stroke-width="3" stroke-linecap="round"/><path d="m453 433 12 12-12 12" stroke="#4FB98B" stroke-width="3" stroke-linecap="round" stroke-linejoin="round"/>
<g><rect x="440" y="280" width="320" height="330" rx="18" fill="white" stroke="#D7E1E8"/><circle cx="480" cy="324" r="22" fill="#DFF6EB"/><text x="473" y="331" fill="#183B56" font-family="Arial" font-size="16" font-weight="700">02</text><rect x="472" y="378" width="254" height="10" rx="5" fill="#EDF3F6"/><rect x="472" y="378" width="163" height="10" rx="5" fill="#4FB98B"/><rect x="472" y="414" width="254" height="45" rx="7" fill="#FFF4DB" stroke="#D99B36"/><text x="488" y="442" fill="#704D1D" font-family="Arial" font-size="13">Review bagian ambigu</text><rect x="472" y="478" width="190" height="12" rx="6" fill="#D7E1E8"/><rect x="472" y="504" width="230" height="12" rx="6" fill="#D7E1E8"/><text x="472" y="565" fill="#132238" font-family="Arial" font-size="19" font-weight="700">Review &amp; rapikan</text></g>
<path d="M783 445h48" stroke="#4FB98B" stroke-width="3" stroke-linecap="round"/><path d="m821 433 12 12-12 12" stroke="#4FB98B" stroke-width="3" stroke-linecap="round" stroke-linejoin="round"/>
<g><rect x="808" y="280" width="320" height="330" rx="18" fill="#183B56"/><circle cx="848" cy="324" r="22" fill="#9DE4C2"/><text x="841" y="331" fill="#183B56" font-family="Arial" font-size="16" font-weight="700">03</text><path d="M950 375v66m0-66-25 25m25-25 25 25M910 480h80" stroke="#9DE4C2" stroke-width="5" stroke-linecap="round" stroke-linejoin="round"/><text x="840" y="525" fill="white" font-family="Arial" font-size="19" font-weight="700">Unduh DOCX</text><text x="840" y="556" fill="#DDEAF0" font-family="Arial" font-size="14">Siap melanjutkan ke Word.</text></g>
</svg>
